<svg xmlns="http://www.w3.org/2000/svg" width="297.201" height="444.576"><path d="M227.133 315.056a46.015 46.015 0 00-34.073 45.738L38.416 103.511l9.16-9.207-28.004-46.593-10.79 6.485-.26-.427-6 3.607L198.05 380.372a46.005 46.005 0 1029.083-65.316z" fill="#fff"/><path d="M193.384 370.15L5.262 58.06l13.797-8.286 26.623 44.303-9.81 9.868a1.5 1.5 0 001.459 2.508 1.531 1.531 0 00.673-.388l10.636-10.69a1.508 1.508 0 00.223-1.83L20.857 46.942a1.5 1.5 0 00-2.063-.514L2.43 56.262a1.5 1.5 0 00-.513 2.064L198.66 384.734l.01-.003c.034.053.06.108.094.16a45.091 45.091 0 0018.671 17.309 47.837 47.837 0 108.99-89.087c-16.375 4.348-35.217 23.783-33.775 38.43a1.5 1.5 0 001.87 1.3 1.1 1.1 0 00.965-1.345c-1.18-13.165 16.866-31.557 31.714-35.497a44.835 44.835 0 11-8.427 83.5 42.097 42.097 0 01-17.431-16.16" fill="#040000"/></svg>