<svg xmlns="http://www.w3.org/2000/svg" width="34.182" height="21.212"><defs><style>.a{fill:none;stroke:#000;stroke-linecap:round;stroke-width:3px}</style></defs><path class="a" d="M1.52 17.191s6.693 0 10.688-2.453l.133-.088c1.31-.792 2.486-3.95 3.962-6.414l.047-.078c4.074-6.8 10.688-5.518 12.777-4.926.02 0 .188.064.188.064"/><path class="a" d="M1.5 3.239s6.71-1.854 10.706.869c1.443.978 2.619 4.489 4.1 7.229l.047.086c4.074 7.562 10.492 6.847 12.581 6.189"/><path d="M29.575 6.363V1.001a.5.5 0 01.826-.383l3.112 2.686a.5.5 0 010 .757l-3.112 2.681a.5.5 0 01-.827-.379z"/><path d="M33.182 3.682l-3.107-2.681v5.362l3.107-2.679m1 0a1 1 0 01-.347.757l-3.107 2.677a1 1 0 01-1.653-.757v-5.36a1 1 0 011.653-.757l3.107 2.681a1 1 0 01.347.757zM29.575 20.21v-5.362a.5.5 0 01.826-.383l3.112 2.686a.5.5 0 010 .757l-3.112 2.681a.5.5 0 01-.827-.379z"/><path d="M33.182 17.529l-3.107-2.681v5.362l3.107-2.679m1 0a1 1 0 01-.347.757l-3.107 2.677a1 1 0 01-1.653-.757v-5.36a1 1 0 011.653-.757l3.107 2.681a1 1 0 01.347.757z"/></svg>