<svg id="圖層_1" data-name="圖層 1" xmlns="http://www.w3.org/2000/svg" viewBox="0 0 1360.6 825.5"><defs><style>.cls-1{fill:#0027c8;}.cls-2{fill:#fff;}</style></defs><title>bg-3</title><polygon points="679.7 679.4 576.9 684.6 623.8 593 679.7 679.4"/><polygon points="666.2 381.7 610.3 341.6 673.1 313.2 666.2 381.7"/><polygon class="cls-1" points="494.3 639.2 215 438.5 528.4 296.9 494.3 639.2"/><polygon class="cls-1" points="915.3 243.9 1052.6 342.5 898.6 412.1 915.3 243.9"/><polygon points="626.5 886.2 429.2 918.8 499.6 731.7 626.5 886.2"/><polygon class="cls-2" points="799.5 774.7 785.8 723.6 836.9 737.3 799.5 774.7"/><polygon class="cls-2" points="978.8 690.6 852 599.5 994.3 535.3 978.8 690.6"/><polygon points="-4.9 873 64 796.6 95.7 894.5 -4.9 873"/><polygon points="27.9 303.3 117 354.7 27.9 406.2 27.9 303.3"/><polygon class="cls-2" points="317.9 718.3 363.7 744.8 317.9 771.2 317.9 718.3"/><polygon class="cls-2" points="-59.4 590.5 94.7 565.3 39.5 711.4 -59.4 590.5"/></svg>