<svg id="圖層_1" data-name="圖層 1" xmlns="http://www.w3.org/2000/svg" viewBox="0 0 1360.6 825.5"><defs><style>.cls-2{fill:#fff}</style></defs><path d="M679.7 679.4l-102.8 5.2 46.9-91.6 55.9 86.4zm-13.5-297.7l-55.9-40.1 62.8-28.4-6.9 68.5z"/><path d="M494.3 639.2L215 438.5l313.4-141.6-34.1 342.3zm421-395.3l137.3 98.6-154 69.6 16.7-168.2z" fill="#0027c8"/><path d="M626.5 886.2l-197.3 32.6 70.4-187.1 126.9 154.5z"/><path class="cls-2" d="M799.5 774.7l-13.7-51.1 51.1 13.7-37.4 37.4zm179.3-84.1L852 599.5l142.3-64.2-15.5 155.3z"/><path d="M-4.9 873L64 796.6l31.7 97.9L-4.9 873zm32.8-569.7l89.1 51.4-89.1 51.5V303.3z"/><path class="cls-2" d="M317.9 718.3l45.8 26.5-45.8 26.4v-52.9zM-59.4 590.5l154.1-25.2-55.2 146.1-98.9-120.9z"/></svg>