<svg id="圖層_1" data-name="圖層 1" xmlns="http://www.w3.org/2000/svg" viewBox="0 0 1453 900"><defs><style>.cls-1{fill:#ff3c82}.cls-2{fill:#1469ff}</style></defs><path class="cls-1" transform="rotate(37.7 908.989 337.065)" d="M809 236.8h201.7v201.74H809z"/><path transform="rotate(14.3 602.136 310.703)" d="M561.6 270h81v81h-81z"/><path class="cls-1" transform="rotate(-4.5 704.182 794.946)" d="M685.1 776.2h48v48h-48z"/><path transform="rotate(-4.5 919.553 730.759)" d="M878.7 688.1h95v95h-95z"/><path transform="rotate(-4.5 558.852 860.61)" d="M546.9 850.8h32v32h-32z"/><path class="cls-2" transform="rotate(-4.5 326.43 353.13)" d="M301.3 327.4h56v56h-56z"/><path transform="rotate(-34.5 386.004 592.84)" d="M313 519.7h147v147H313z"/><path class="cls-2" transform="rotate(90.1 733.483 598.637)" d="M670.5 535.7h126v126h-126z"/><path transform="rotate(-142.3 135.177 937.87)" d="M94.3 897.3h81v81h-81z"/><path class="cls-1" transform="rotate(146.6 132.748 580.634)" d="M108.5 556.8h48v48h-48z"/><path transform="rotate(146.6 5.693 515.102)" d="M-10.5 499.2h32v32h-32z"/><path class="cls-2" transform="rotate(146.6 336.61 804.698)" d="M308.3 777h56v56h-56z"/><path transform="rotate(116.6 795.828 946.63)" d="M740.8 892.3h109.7v109.72H740.8z"/><path class="cls-2" transform="rotate(-153.4 -3.06 685.198)" d="M-66.3 622.1h126v126h-126z"/></svg>