<svg id="圖層_1" data-name="圖層 1" xmlns="http://www.w3.org/2000/svg" viewBox="0 0 1453 900"><defs><style>.cls-1{fill:#ff3c82;}.cls-2{fill:#1469ff;}</style></defs><title>未命名-1</title><rect class="cls-1" x="809" y="236.8" width="201.7" height="201.74" transform="translate(395.9 -485.5) rotate(37.7)"/><rect x="561.6" y="270" width="81" height="81" transform="translate(95.4 -139.1) rotate(14.3)"/><rect class="cls-1" x="685.1" y="776.2" width="48" height="48" transform="translate(-60.2 57.7) rotate(-4.5)"/><rect x="878.7" y="688.1" width="95" height="95" transform="translate(-54.5 74.4) rotate(-4.5)"/><rect x="546.9" y="850.8" width="32" height="32" transform="translate(-65.8 46.5) rotate(-4.5)"/><rect class="cls-2" x="301.3" y="327.4" width="56" height="56" transform="translate(-26.7 26.7) rotate(-4.5)"/><rect x="313" y="519.7" width="147" height="147" transform="translate(-267.9 322.9) rotate(-34.5)"/><rect class="cls-2" x="670.5" y="535.7" width="126" height="126" transform="translate(1333.4 -133.8) rotate(90.1)"/><rect x="94.3" y="897.3" width="81" height="81" transform="translate(-331.4 1762.6) rotate(-142.3)"/><rect class="cls-1" x="108.5" y="556.8" width="48" height="48" transform="translate(563.2 992.3) rotate(146.6)"/><rect x="-10.5" y="499.2" width="32" height="32" transform="translate(294 942) rotate(146.6)"/><rect class="cls-2" x="308.3" y="777" width="56" height="56" transform="translate(1060.6 1291.2) rotate(146.6)"/><rect x="740.8" y="892.3" width="109.7" height="109.72" transform="translate(1998.6 658.9) rotate(116.6)"/><rect class="cls-2" x="-66.3" y="622.1" width="126" height="126" transform="translate(-312.6 1296.5) rotate(-153.4)"/></svg>