<svg xmlns="http://www.w3.org/2000/svg" width="31.942" height="32"><defs><style>.a{fill:#b19e73}</style></defs><path class="a" d="M31.942 18.263a3.08 3.08 0 0 0-3.074-3.077V4.436a4.434 4.434 0 0 0-8.789-.833 4.361 4.361 0 0 1 .786-.08 4.388 4.388 0 0 0-4.375 4.375v1.006h9.033V7.898a4.384 4.384 0 0 0-3.362-4.243 2.405 2.405 0 0 1 4.682.782v10.749h-3.171v-1.769a.507.507 0 0 0-1.013 0v1.769h-1.282v-1.769a.507.507 0 1 0-1.013 0v1.769h-1.28v-1.769a.507.507 0 1 0-1.013 0v1.769H3.078a3.067 3.067 0 0 0-2.065 5.344v4.065a5.707 5.707 0 0 0 5.242 5.685 2.531 2.531 0 0 0 4.788.023h10.121a2.531 2.531 0 0 0 4.8-.054 5.7 5.7 0 0 0 4.967-5.655V20.53a3.06 3.06 0 0 0 1.011-2.267zM21.149 3.523a3.944 3.944 0 0 1 .7.071 4.379 4.379 0 0 0-.7-.071zM3.078 17.211h25.787a1.052 1.052 0 1 1 0 2.1H3.078a1.052 1.052 0 0 1 0-2.1z"/><path class="a" d="M18.579 12.293a.5.5 0 0 0 .5-.5V9.862a.5.5 0 0 0-1 0v1.931a.5.5 0 0 0 .5.5zm2.294 0a.5.5 0 0 0 .5-.5V9.862a.5.5 0 1 0-1 0v1.931a.5.5 0 0 0 .5.5zm2.295 0a.5.5 0 0 0 .5-.5V9.862a.5.5 0 1 0-1 0v1.931a.5.5 0 0 0 .5.5z"/></svg>