<svg xmlns="http://www.w3.org/2000/svg" width="31.942" height="32" viewBox="0 0 31.942 32"><defs><style>.a{fill:#b19e73;}</style></defs><g transform="translate(-306.668 -232.849)"><path class="a" d="M338.61,251.112a3.08,3.08,0,0,0-3.074-3.077v-10.75a4.434,4.434,0,0,0-8.789-.833,4.361,4.361,0,0,1,.786-.08,4.388,4.388,0,0,0-4.375,4.375v1.006h9.033v-1.006a4.384,4.384,0,0,0-3.362-4.243,2.405,2.405,0,0,1,4.682.782v10.749H330.34v-1.769a.506.506,0,0,0-1.013,0v1.769h-1.282v-1.769a.506.506,0,1,0-1.013,0v1.769h-1.28v-1.769a.506.506,0,1,0-1.013,0v1.769H309.746a3.067,3.067,0,0,0-2.065,5.344v4.065a5.707,5.707,0,0,0,5.242,5.685,2.531,2.531,0,0,0,4.788.023h10.121a2.531,2.531,0,0,0,4.8-.054,5.7,5.7,0,0,0,4.967-5.655v-4.064A3.06,3.06,0,0,0,338.61,251.112Zm-10.793-14.74a3.944,3.944,0,0,1,.7.071A4.379,4.379,0,0,0,327.817,236.372ZM309.746,250.06h25.787a1.052,1.052,0,1,1,0,2.1H309.746a1.052,1.052,0,0,1,0-2.1Z"/><path class="a" d="M325.013,245.013a.5.5,0,0,0,.5-.5v-1.931a.5.5,0,0,0-1,0v1.931A.5.5,0,0,0,325.013,245.013Z" transform="translate(0.234 0.129)"/><path class="a" d="M327.277,245.013a.5.5,0,0,0,.5-.5v-1.931a.5.5,0,1,0-1,0v1.931A.5.5,0,0,0,327.277,245.013Z" transform="translate(0.264 0.129)"/><path class="a" d="M329.543,245.013a.5.5,0,0,0,.5-.5v-1.931a.5.5,0,1,0-1,0v1.931A.5.5,0,0,0,329.543,245.013Z" transform="translate(0.293 0.129)"/></g></svg>