<svg xmlns="http://www.w3.org/2000/svg" width="33.562" height="31"><path d="M33.53 17.427c0-.021-.013-.041-.019-.062a1.124 1.124 0 0 0-.079-.2c-.006-.012-.008-.026-.015-.038l-3.691-6.643V1.151A1.151 1.151 0 0 0 28.575 0H5.09a1.151 1.151 0 0 0-1.151 1.151v9.148l-3.8 6.831c-.007.013-.009.027-.016.04a1.11 1.11 0 0 0-.077.2c-.007.021-.015.042-.02.063a1.142 1.142 0 0 0-.032.26V31h2.3v-4.779h28.967v4.778h2.3V17.688a1.173 1.173 0 0 0-.031-.261zm-15.215-9.81h6.281v4.332h-6.281zm-8.966 0h6.281v4.332H9.349zm-6.241 8.921l2.557-4.6h1.383v1.165a1.151 1.151 0 0 0 1.151 1.151h17.548a1.151 1.151 0 0 0 1.151-1.151v-1.168h1l2.558 4.6z" fill="#b19e73"/></svg>