<svg xmlns="http://www.w3.org/2000/svg" width="33.562" height="31" viewBox="0 0 33.562 31"><defs><style>.a{fill:#b19e73;}</style></defs><g transform="translate(-28.292 -31.591)"><path class="a" d="M61.822,49.018c0-.021-.013-.041-.019-.062a1.124,1.124,0,0,0-.079-.2c-.006-.012-.008-.026-.015-.038l-3.691-6.643V32.742a1.151,1.151,0,0,0-1.151-1.151H33.382a1.151,1.151,0,0,0-1.151,1.151V41.89l-3.8,6.831c-.007.013-.009.027-.016.04a1.11,1.11,0,0,0-.077.2c-.007.021-.015.042-.02.063a1.142,1.142,0,0,0-.032.26V62.591h2.3V57.812H59.553V62.59h2.3V49.279A1.173,1.173,0,0,0,61.822,49.018ZM46.607,39.208h6.281V43.54H46.607Zm-8.966,0h6.281V43.54H37.641ZM31.4,48.129l2.557-4.6H35.34v1.165a1.151,1.151,0,0,0,1.151,1.151H54.039a1.151,1.151,0,0,0,1.151-1.151V43.526h1l2.558,4.6Z"/></g></svg>