<svg xmlns="http://www.w3.org/2000/svg" width="31.085" height="32"><defs><style>.a{fill:#b19e73}</style></defs><path class="a" d="M30.56 7.393L15.966.093c-.025-.012-.05-.016-.075-.027a.741.741 0 00-.227-.059.928.928 0 00-.126-.01 1.088 1.088 0 00-.111.009 1.075 1.075 0 00-.123.022.931.931 0 00-.109.038.769.769 0 00-.078.027L.523 7.393a.946.946 0 00-.524.847v14.594a.936.936 0 00.029.22c0 .018.01.035.015.053a.953.953 0 00.082.2.824.824 0 00.055.075.888.888 0 00.094.12.838.838 0 00.084.069 1.108 1.108 0 00.091.074.218.218 0 01.022.009l.022.016 15.054 8.218a.952.952 0 00.932-.012l14.135-8.218.011-.009h.009a.886.886 0 00.109-.088.952.952 0 00.076-.062.967.967 0 00.145-.2c.007-.012.009-.027.016-.039a.959.959 0 00.074-.19c.008-.031.008-.063.012-.095a.967.967 0 00.018-.138V8.24a.946.946 0 00-.524-.847zm-1.371 13.906l-12.7-6.365V2.476l12.7 6.35zm-14.6-18.823v12.458l-3.2 1.606V9.485l-4.7 2.255v7.155l-4.8 2.4V8.827zM7.945 15.999v-2.053l1.091-.523v2.03z"/><path class="a" d="M21.225 12.297l3.152 1.575a.488.488 0 00.223.053.5.5 0 00.5-.5v-3.152a.5.5 0 00-.276-.447L21.673 8.25a.5.5 0 00-.724.447v3.152a.5.5 0 00.276.448zm.724-2.791l2.151 1.076v2.034l-2.151-1.076z"/></svg>