<svg xmlns="http://www.w3.org/2000/svg" width="31.085" height="32" viewBox="0 0 31.085 32"><defs><style>.a{fill:#b19e73;}</style></defs><g transform="translate(-376.381 -218.79)"><path class="a" d="M406.941,226.183l-14.594-7.3c-.025-.012-.05-.016-.075-.027a.741.741,0,0,0-.227-.059.928.928,0,0,0-.126-.01,1.088,1.088,0,0,0-.111.009,1.075,1.075,0,0,0-.123.022.931.931,0,0,0-.109.038.769.769,0,0,0-.078.027l-14.594,7.3a.946.946,0,0,0-.524.847v14.594a.936.936,0,0,0,.029.22c0,.018.01.035.015.053a.953.953,0,0,0,.082.2.824.824,0,0,0,.055.075.888.888,0,0,0,.094.12.838.838,0,0,0,.084.069,1.108,1.108,0,0,0,.091.074.218.218,0,0,1,.022.009l.022.016,15.054,8.218a.952.952,0,0,0,.932-.012l14.135-8.218.011-.009.009,0a.886.886,0,0,0,.109-.088.952.952,0,0,0,.076-.062.967.967,0,0,0,.145-.2c.007-.012.009-.027.016-.039a.959.959,0,0,0,.074-.19c.008-.031.008-.063.012-.095a.967.967,0,0,0,.018-.138V227.03A.946.946,0,0,0,406.941,226.183Zm-1.371,13.906-12.7-6.365V221.266l12.7,6.35Zm-14.6-18.823v12.458l-3.2,1.606v-7.055l-4.7,2.255v7.155l-4.8,2.4V227.617Zm-6.644,13.523v-2.053l1.091-.523v2.03Z" transform="translate(0)"/><path class="a" d="M398.941,231.638l3.152,1.575a.488.488,0,0,0,.223.053.5.5,0,0,0,.5-.5v-3.152a.5.5,0,0,0-.276-.447l-3.151-1.576a.5.5,0,0,0-.724.447v3.152A.5.5,0,0,0,398.941,231.638Zm.724-2.791,2.151,1.076v2.034l-2.151-1.076Z" transform="translate(-1.335 -0.551)"/></g></svg>