<svg id="Layer_1" version="1.1" viewBox="0 0 64 64" xml:space="preserve" xmlns="http://www.w3.org/2000/svg"><style>.st4{fill:#fff}.st11{fill:#1a1a54}</style><circle cx="32" cy="32" r="32" fill="#ffbf0b"/><path class="st11" d="M23.9 41.6c1-1.3 2.3-2.1 3.7-2.7 1.4-.6 3-.8 4.5-.8 1.5.1 3 .4 4.4 1 .7.3 1.3.7 1.9 1.1.6.4 1.1.9 1.6 1.5.3.4.3 1-.1 1.3-.2.1-.4.2-.6.2h-.1c-.7 0-1.4-.1-2-.1-.6 0-1.2-.1-1.8-.2-1.2-.1-2.3-.1-3.5-.2-1.1 0-2.2.1-3.4.2-1.1.1-2.4.3-3.6.4h-.3c-.6.1-1.1-.4-1.2-1 .2-.2.3-.4.5-.7z"/><circle class="st4" cx="44.5" cy="23.5" r="7.5"/><circle class="st4" cx="44.5" cy="23.5" r="7.5"/><circle class="st4" cx="44.5" cy="23.5" r="7.5"/><circle class="st11" cx="43.5" cy="21.5" r="4.5"/><circle class="st4" cx="19.5" cy="23.5" r="7.5"/><circle class="st11" cx="18.5" cy="21.5" r="4.5"/></svg>