<svg id="Layer_1" version="1.1" viewBox="0 0 64 64" xml:space="preserve" xmlns="http://www.w3.org/2000/svg"><style>.st5{fill:#fff}.st11{fill:#ffbf0b}.st12{fill:#1a1a54}.st15{fill:#0b85ff}</style><circle class="st11" cx="32" cy="32" r="32"/><circle class="st5" cx="48.5" cy="24.5" r="7.5"/><circle class="st12" cx="49.5" cy="22.5" r="3.5"/><circle class="st5" cx="26.5" cy="24.5" r="7.5"/><circle class="st12" cx="27.5" cy="22.5" r="3.5"/><path class="st12" d="M17.6 15c.8-1.4 2-2.3 3.3-3.1 1.3-.7 2.8-1.2 4.3-1.4 1.5-.2 3-.1 4.4.3.7.1 1.4.5 2.1.7.7.3 1.3.7 1.9 1.1.3.3.4.7.2 1.1-.1.2-.3.3-.5.3h-.1c-.7.1-1.3.1-2 .1h-1.8c-1.2 0-2.4.2-3.5.3-1.1.2-2.3.4-3.4.7-1.1.3-2.3.7-3.4 1.1l-.2.1c-.5.2-1-.1-1.2-.6-.3-.2-.2-.5-.1-.7zm23.7-8c1.3-1 2.7-1.5 4.2-1.7 1.5-.2 3-.1 4.5.2 1.4.4 2.9 1 4 1.8.6.4 1.1.9 1.7 1.4.5.5.9 1.1 1.3 1.7.2.4.1.8-.2 1.1-.2.1-.4.1-.6.1h-.1c-.7-.2-1.3-.4-1.9-.6l-.9-.3-.9-.3c-1.1-.4-2.3-.7-3.4-1-1-.2-2.2-.4-3.3-.5-1.2-.1-2.4-.2-3.6-.2h-.2c-.5 0-.9-.5-.9-1 0-.2.1-.5.3-.7z"/><circle class="st11" cx="48" cy="38" r="10"/><circle class="st12" cx="48" cy="38" r="5"/><path class="st15" d="M2.2 18c-.2-1.4-.2-2.8.1-4.2.3-1.4 1.1-2.9 2.4-4.1 1.3-1 3-1.6 4.5-1.7.8 0 1.7 0 2.6.2.8.2 1.6.6 2.3 1 1.4.9 2.5 2.2 3.2 3.8.7 1.6.8 3.6.1 5.3-.7 1.7-2 2.9-3.2 3.7-1.3.8-2.6 1.3-3.9 1.6l1.4-1.9c-.1 1-.2 1.9-.3 2.9-.1.5-.1 1-.2 1.5s-.2.9-.3 1.5c-.1.6-.8 1-1.4.9-.5-.1-.8-.5-.9-1v-.2c-.3-.3-.4-.8-.5-1.3-.1-.5-.1-1-.2-1.4-.1-1-.2-1.9-.3-2.9-.1-.8.4-1.5 1.1-1.8l.3-.1c2-.7 3.7-2 4-3.2.2-.6.1-1.2-.1-1.8-.3-.6-.8-1.2-1.5-1.7-.6-.4-1.3-.7-2.1-.7-.9 0-1.6.1-2.2.5-.6.4-1.1 1-1.6 1.9-.4.9-.7 2-.9 2.9v.2c-.1.7-.8 1.2-1.5 1.1-.4 0-.9-.4-.9-1z"/><circle class="st15" cx="9.5" cy="31.5" r="1.5"/></svg>