<svg xmlns="http://www.w3.org/2000/svg" width="191.714" height="45" viewBox="0 0 191.714 45"><defs><style>.a{fill:#fff;}</style></defs><g transform="translate(-270.684 -309.897)"><g transform="translate(348.502 311.478)"><path class="a" d="M302.416,311.621a21.464,21.464,0,0,0-3.644.851,4.46,4.46,0,0,0-1.913,1.2,3.392,3.392,0,0,0-.752,1.813,20.808,20.808,0,0,0-.146,2.687V343.7c.874.177,1.723.332,2.548.479a15.146,15.146,0,0,0,2.5.213,17.312,17.312,0,0,0,4.995-.643,11.918,11.918,0,0,0,3.838-1.915,15.418,15.418,0,0,0,3.13-3.214,43.869,43.869,0,0,0,2.888-4.552h.724l-3.733,11.916c-1.165-.071-2.338-.12-3.518-.155s-2.354-.053-3.522-.053H291.541c-.8,0-1.614.013-2.422.053s-1.622.084-2.427.155v-.638a10.023,10.023,0,0,0,2.548-.527,4.116,4.116,0,0,0,1.48-.931,2.781,2.781,0,0,0,.7-1.356,9.345,9.345,0,0,0,.17-1.862V319.605c0-1.494-.044-2.726-.121-3.7a6.156,6.156,0,0,0-.611-2.367,2.932,2.932,0,0,0-1.452-1.33,9.049,9.049,0,0,0-2.718-.59v-.638c1.258.075,2.516.129,3.761.164s2.5.053,3.757.053q2.038,0,4.1-.053t4.1-.164Z" transform="translate(-286.692 -308.172)"/><path class="a" d="M296.133,318.689a6.549,6.549,0,0,1,1.092-2.406,4.827,4.827,0,0,1,1.626-1.359,6.087,6.087,0,0,1,2.087-.582q1.165-.115,2.475-.117a11.816,11.816,0,0,1,2.5.267,6.76,6.76,0,0,1,2.232.9,4.782,4.782,0,0,1,1.6,1.674,4.992,4.992,0,0,1,.607,2.548v8.974a2.8,2.8,0,0,0,.485,1.63,1.71,1.71,0,0,0,1.5.7,2.793,2.793,0,0,0,1.723-.562c.5-.368.983-.732,1.432-1.092l.485.538-1.136,1.136c-.441.437-.9.861-1.387,1.262a9.15,9.15,0,0,1-1.48,1.019,3.074,3.074,0,0,1-1.48.413,1.973,1.973,0,0,1-1.019-.315,7.024,7.024,0,0,1-1.043-.748,10.243,10.243,0,0,1-.946-.922q-.437-.485-.777-.825a22.666,22.666,0,0,1-3.494,1.941,9.183,9.183,0,0,1-3.785.869,5.717,5.717,0,0,1-1.969-.34,5.244,5.244,0,0,1-1.67-.967,4.826,4.826,0,0,1-1.165-1.5,4.4,4.4,0,0,1-.437-1.994,4.47,4.47,0,0,1,1.116-3.179,7.22,7.22,0,0,1,2.888-1.816,16.837,16.837,0,0,1,4.028-.849c1.5-.146,3.013-.235,4.537-.267v-3.688a3.468,3.468,0,0,0-1.116-2.766,4.124,4.124,0,0,0-2.815-.975,2.236,2.236,0,0,0-1.994,1.262,5.684,5.684,0,0,0-.724,2.863Zm10.531,5.921a12.307,12.307,0,0,0-3.252-.437,8.171,8.171,0,0,0-1.844.214,5.049,5.049,0,0,0-1.65.708,3.951,3.951,0,0,0-1.189,1.237,3.414,3.414,0,0,0-.461,1.816,2.546,2.546,0,0,0,1.14,2.358,4.732,4.732,0,0,0,2.548.7,6.355,6.355,0,0,0,2.839-.627,12.1,12.1,0,0,0,1.868-1.072Z" transform="translate(-263.861 -295.236)"/><path class="a" d="M299.364,314.368c1.035.028,1.755.065,2.16.1s.72.045.946.045h1.407c.259,0,.566.02.922.052.518-.032.954-.052,1.31-.052h1.941c.291,0,.6-.016.922-.045s.857-.069,1.6-.1v.582a5.772,5.772,0,0,0-1.986.679,1.8,1.8,0,0,0-.975,1.7,7.766,7.766,0,0,0,.655,2.5q.655,1.674,1.5,3.47t1.678,3.373q.819,1.571,1.161,2.257.485-.928,1.407-2.552T315.84,323c.6-1.165,1.116-2.261,1.553-3.3a6.758,6.758,0,0,0,.655-2.333,1.9,1.9,0,0,0-.8-1.84,5.441,5.441,0,0,0-1.965-.582v-.582q.922.1,2.281.142t2.378.052c.712,0,1.415-.016,2.111-.052s1.4-.077,2.111-.142v.582a4.119,4.119,0,0,0-1.262.311,4.641,4.641,0,0,0-1.286.878,9.84,9.84,0,0,0-1.359,1.626,20.9,20.9,0,0,0-1.48,2.572q-1.7,3.2-3.4,6.26A64.746,64.746,0,0,0,312.273,333h-1.747q-1.553-3.5-3.373-7.158t-3.276-7.013a8.414,8.414,0,0,0-1.747-2.524,4.786,4.786,0,0,0-2.766-1.359Z" transform="translate(-248.116 -294.798)"/><path class="a" d="M309.255,333.217c0-.854-.024-1.605-.073-2.26a4.055,4.055,0,0,0-.437-1.645,2.9,2.9,0,0,0-1.092-1.088,5.3,5.3,0,0,0-1.99-.584V326.9l7.377-.535v15.608a8.9,8.9,0,0,0,.194,2.092,2.217,2.217,0,0,0,.655,1.172,2.649,2.649,0,0,0,1.189.557,11.211,11.211,0,0,0,1.8.208v.637c-1.136-.071-2.277-.119-3.425-.155s-2.289-.053-3.421-.053c-.744,0-1.472.013-2.184.053s-1.44.084-2.184.155V346a9.69,9.69,0,0,0,1.65-.208,2.451,2.451,0,0,0,1.116-.557,2.308,2.308,0,0,0,.631-1.172,8.893,8.893,0,0,0,.194-2.092Zm1.407-22.449a2.313,2.313,0,0,1,1.82.871,3.158,3.158,0,0,1,0,4.091,2.336,2.336,0,0,1-3.64,0,3.157,3.157,0,0,1,0-4.091A2.313,2.313,0,0,1,310.663,310.768Z" transform="translate(-228.938 -308.827)"/><path class="a" d="M308.854,347.467a6.059,6.059,0,0,0,2.014-.524,2.228,2.228,0,0,0,1.019-1.061,5.064,5.064,0,0,0,.392-1.765c.045-.722.069-1.615.069-2.667V316.939a11.878,11.878,0,0,0-.214-2.509,3.883,3.883,0,0,0-.655-1.532,2.248,2.248,0,0,0-1.144-.761,7.311,7.311,0,0,0-1.622-.269v-.634l7.425-.946v28.359c.356-.348.926-.849,1.723-1.5s1.589-1.356,2.4-2.113a23.46,23.46,0,0,0,2.139-2.271,3.413,3.413,0,0,0,.918-2.033,1.574,1.574,0,0,0-.364-1.189,1.912,1.912,0,0,0-1.088-.449v-.634h9.463v.634a9.3,9.3,0,0,0-2.718.924,17.752,17.752,0,0,0-2.43,1.532c-.772.581-1.529,1.206-2.253,1.871s-1.452,1.325-2.164,1.954c.744.955,1.537,2.078,2.378,3.38s1.751,2.575,2.718,3.807a21.333,21.333,0,0,0,3.134,3.244,6.953,6.953,0,0,0,3.563,1.664v.634c-.971-.07-1.949-.119-2.932-.154s-1.982-.053-2.985-.053c-1.035,0-2.054.013-3.057.053s-2.022.084-3.057.154v-.634a3.294,3.294,0,0,0,1.7-.37,1.549,1.549,0,0,0,.874-1.527,3.875,3.875,0,0,0-.611-1.774c-.4-.717-.874-1.457-1.4-2.218s-1.08-1.492-1.63-2.214-.95-1.294-1.213-1.721l-3.1,2.54v3.909a3.434,3.434,0,0,0,.679,2.4,4.625,4.625,0,0,0,2.718.973v.634c-1.072-.07-2.131-.119-3.179-.154s-2.115-.053-3.183-.053c-.74,0-1.464.013-2.16.053s-1.411.084-2.16.154Z" transform="translate(-219.659 -310.288)"/></g><g transform="translate(270.684 309.897)"><path class="a" d="M296.745,343.647a3.965,3.965,0,0,1-.655,2.24,1.812,1.812,0,0,1-1.48.99q-1.116,0-2.475-1.875a9.807,9.807,0,0,0-.971-1.3,1.583,1.583,0,0,0-1.213-.521c-1.193,0-2.443.955-3.733,2.865q-1.559,2.24-2.139,2.969a8.673,8.673,0,0,1-2.135,2.031,20.361,20.361,0,0,0-4.028,2.187,9.709,9.709,0,0,1-4.8,1.667q-2.426,0-2.427-1.51c0-.59.214-.885.631-.885h.485a10.268,10.268,0,0,0,5.148-1.875,25.076,25.076,0,0,0,6.159-5.677,7.183,7.183,0,0,0,1.359-4.583,3.319,3.319,0,0,0-.146-.99,13.632,13.632,0,0,1-2.471.469q-4.277,0-4.275-3.7,0-4.583,4.081-4.583,3.834,0,5.431,2.76.492,1.042.922,2.031a5.48,5.48,0,0,0,1.411,1.927,6.241,6.241,0,0,0,3.883.938h.679q.77,0,1.695,1.25A5.265,5.265,0,0,1,296.745,343.647Zm-.239-17.708c0,.8-.619,1.684-1.844,2.656q-3.112,2.448-5.051,2.448c-.453,0-.675-.26-.675-.781a2.016,2.016,0,0,1,.336-.99,2.043,2.043,0,0,0,.34-.781c0-.278-.53-.677-1.6-1.2q-1.068-.26-2.087-.573a1.369,1.369,0,0,1-1.019-1.458,2.641,2.641,0,0,1,.679-1.875,2.281,2.281,0,0,1,1.747-.729,4.669,4.669,0,0,1,.946.156,4.69,4.69,0,0,0,.995.156q.194,0,.194-.312,0,.156-.461-.859a7.015,7.015,0,0,1-.558-2.422,1.786,1.786,0,0,1,.776-.26,3.189,3.189,0,0,1,1.6.833c1.165.937,1.8,1.441,1.893,1.51a22.4,22.4,0,0,1,2.669,1.979A3.413,3.413,0,0,1,296.506,325.939Zm7.809-11.042q0,.625-4.368,6.458c-.615.8-1.08,1.2-1.407,1.2q-.437,0-1.262-.885-4.853-5.208-4.853-6.094,0-1.406,1.557-1.406-.443,0,1.986.521a1.4,1.4,0,0,0,.538-1.25v-.469a2.308,2.308,0,0,1-.053-.313c0-1.84.732-2.76,2.184-2.76q1.456,0,1.9,2.4c.061.59.142,1.181.239,1.771q.1.677.34.677.291,0,.8-.833t.8-.833c.291,0,.631.226,1.023.677A1.955,1.955,0,0,1,304.315,314.9Zm-.194,17.448c0,1.84-.384,2.76-1.165,2.76a1.576,1.576,0,0,1-1.165-.573c-.13-.243-.239-.365-.34-.365-.291,0-.485.634-.578,1.9s-.6,1.9-1.5,1.9q-1.656,0-1.654-1.146,0-.052.073-.469a3.966,3.966,0,0,0,.077-.729c0-.59-.327-.885-.975-.885a2.033,2.033,0,0,0-.849.391,1.982,1.982,0,0,1-.946.391,1.2,1.2,0,0,1-.942-.495,1.755,1.755,0,0,1-.417-1.172q0-.885,2.038-3.828t3.057-2.943q.776,0,2.912,1.875Q304.121,331.043,304.121,332.345ZM326.4,353.387q0,1.354-1.5,1.354-1.747,0-5.965-1.875-3.986-1.771-3.882-1.771a.63.63,0,0,0-.3.13.691.691,0,0,1-.384.13q-1.462,0-3.5-2.656t-2.524-3.125a3.439,3.439,0,0,0-2.475-1.2,2.294,2.294,0,0,0-2.378,2.031,4.575,4.575,0,0,1-.578,1.511,2.013,2.013,0,0,1-1.509.469q-2.912,0-2.912-3.8a5.667,5.667,0,0,1,1.407-3.646,3.672,3.672,0,0,1,2.572-1.562h.441a3.842,3.842,0,0,0,.578.052c1.622,0,2.7-.365,3.252-1.094q.146-.208,1.456-3.49a6.062,6.062,0,0,1,2.329-2.891,5.91,5.91,0,0,1,3.349-1.12,3.991,3.991,0,0,1,2.96,1.172A4.069,4.069,0,0,1,318,335a4.521,4.521,0,0,1-1.48,3.177,4.243,4.243,0,0,1-2.985,1.51,2.8,2.8,0,0,1-2.572-1.25,2.546,2.546,0,0,0-.728,1.771q0,5.886,11.6,10.417l3.5.937Q326.394,351.876,326.4,353.387Zm-15.19-29.115q0,2.083-2.426,2.083a2.815,2.815,0,0,1-.728-.1,2.6,2.6,0,0,0-.485-.1.8.8,0,0,0-.388.156l.1.938a6.18,6.18,0,0,1-.146,1.719.833.833,0,0,1-.874.521q-.443,0-5.245-3.594a2.407,2.407,0,0,1-.34-1.25,2.661,2.661,0,0,1,1.019-1.927q.777-.677,3.4-3.281,1.3-1.25,1.7-1.25a2.481,2.481,0,0,1,1.4.755q.874.755.874,1.12,0,.312-.655.964t-.655,1.015a.468.468,0,0,0,.538.521,1.073,1.073,0,0,0,.214-.052,1.006,1.006,0,0,1,.267-.052,4.417,4.417,0,0,1,1.872.286C311.02,322.926,311.207,323.439,311.207,324.272Z" transform="translate(-270.684 -309.897)"/></g></g></svg>